<svg width="98" height="35" viewBox="0 0 98 35" fill="none" xmlns="http://www.w3.org/2000/svg">
<rect width="98" height="22" fill="#1A1A1A"/>
<path d="M10.6434 17.24C9.49671 17.24 8.52871 16.9867 7.73938 16.48C6.95004 15.968 6.35271 15.2613 5.94738 14.36C5.54204 13.4587 5.33938 12.4187 5.33938 11.24C5.33938 10.0613 5.54204 9.02133 5.94738 8.12C6.35271 7.21867 6.95004 6.51467 7.73938 6.008C8.52871 5.496 9.49671 5.24 10.6434 5.24C11.982 5.24 13.0754 5.584 13.9234 6.272C14.7714 6.95467 15.3527 7.872 15.6674 9.024L14.4674 9.336C14.222 8.424 13.782 7.70133 13.1474 7.168C12.5127 6.63467 11.678 6.368 10.6434 6.368C9.74204 6.368 8.99271 6.57333 8.39538 6.984C7.79804 7.39467 7.34738 7.968 7.04338 8.704C6.74471 9.43467 6.59004 10.28 6.57938 11.24C6.57404 12.2 6.72071 13.0453 7.01938 13.776C7.32338 14.5067 7.77671 15.08 8.37938 15.496C8.98738 15.9067 9.74204 16.112 10.6434 16.112C11.678 16.112 12.5127 15.8453 13.1474 15.312C13.782 14.7733 14.222 14.0507 14.4674 13.144L15.6674 13.456C15.3527 14.608 14.7714 15.528 13.9234 16.216C13.0754 16.8987 11.982 17.24 10.6434 17.24ZM17.5925 17V5.24H18.7685V17H17.5925ZM23.6389 17.24C22.9882 17.24 22.4415 17.1227 21.9989 16.888C21.5615 16.6533 21.2335 16.3413 21.0149 15.952C20.7962 15.5627 20.6869 15.1387 20.6869 14.68C20.6869 14.2107 20.7802 13.8107 20.9669 13.48C21.1589 13.144 21.4175 12.8693 21.7429 12.656C22.0735 12.4427 22.4549 12.28 22.8869 12.168C23.3242 12.0613 23.8069 11.968 24.3349 11.888C24.8682 11.8027 25.3882 11.7307 25.8949 11.672C26.4069 11.608 26.8549 11.5467 27.2389 11.488L26.8229 11.744C26.8389 10.8907 26.6735 10.2587 26.3269 9.848C25.9802 9.43733 25.3775 9.232 24.5189 9.232C23.9269 9.232 23.4255 9.36533 23.0149 9.632C22.6095 9.89867 22.3242 10.32 22.1589 10.896L21.0149 10.56C21.2122 9.78667 21.6095 9.18667 22.2069 8.76C22.8042 8.33333 23.5802 8.12 24.5349 8.12C25.3242 8.12 25.9935 8.26933 26.5429 8.568C27.0975 8.86133 27.4895 9.288 27.7189 9.848C27.8255 10.0987 27.8949 10.3787 27.9269 10.688C27.9589 10.9973 27.9749 11.312 27.9749 11.632V17H26.9269V14.832L27.2309 14.96C26.9375 15.7013 26.4815 16.2667 25.8629 16.656C25.2442 17.0453 24.5029 17.24 23.6389 17.24ZM23.7749 16.224C24.3242 16.224 24.8042 16.1253 25.2149 15.928C25.6255 15.7307 25.9562 15.4613 26.2069 15.12C26.4575 14.7733 26.6202 14.384 26.6949 13.952C26.7589 13.6747 26.7935 13.3707 26.7989 13.04C26.8042 12.704 26.8069 12.4533 26.8069 12.288L27.2549 12.52C26.8549 12.5733 26.4202 12.6267 25.9509 12.68C25.4869 12.7333 25.0282 12.7947 24.5749 12.864C24.1269 12.9333 23.7215 13.016 23.3589 13.112C23.1135 13.1813 22.8762 13.28 22.6469 13.408C22.4175 13.5307 22.2282 13.696 22.0789 13.904C21.9349 14.112 21.8629 14.3707 21.8629 14.68C21.8629 14.9307 21.9242 15.1733 22.0469 15.408C22.1749 15.6427 22.3775 15.8373 22.6549 15.992C22.9375 16.1467 23.3109 16.224 23.7749 16.224ZM33.2815 17.232C32.2682 17.232 31.4335 17.0133 30.7775 16.576C30.1268 16.1387 29.7268 15.5307 29.5775 14.752L30.7775 14.552C30.9055 15.0427 31.1962 15.4347 31.6495 15.728C32.1082 16.016 32.6735 16.16 33.3455 16.16C34.0015 16.16 34.5188 16.024 34.8975 15.752C35.2762 15.4747 35.4655 15.0987 35.4655 14.624C35.4655 14.3573 35.4042 14.1413 35.2815 13.976C35.1642 13.8053 34.9215 13.648 34.5535 13.504C34.1855 13.36 33.6362 13.1893 32.9055 12.992C32.1215 12.7787 31.5082 12.5653 31.0655 12.352C30.6228 12.1387 30.3082 11.8933 30.1215 11.616C29.9348 11.3333 29.8415 10.9893 29.8415 10.584C29.8415 10.0933 29.9802 9.664 30.2575 9.296C30.5348 8.92267 30.9188 8.63467 31.4095 8.432C31.9002 8.224 32.4708 8.12 33.1215 8.12C33.7722 8.12 34.3535 8.22667 34.8655 8.44C35.3828 8.648 35.7988 8.94133 36.1135 9.32C36.4282 9.69867 36.6148 10.1387 36.6735 10.64L35.4735 10.856C35.3935 10.3493 35.1402 9.94933 34.7135 9.656C34.2922 9.35733 33.7562 9.20267 33.1055 9.192C32.4922 9.176 31.9935 9.29333 31.6095 9.544C31.2255 9.78933 31.0335 10.1173 31.0335 10.528C31.0335 10.7573 31.1028 10.9547 31.2415 11.12C31.3802 11.28 31.6308 11.432 31.9935 11.576C32.3615 11.72 32.8842 11.8773 33.5615 12.048C34.3562 12.2507 34.9802 12.464 35.4335 12.688C35.8868 12.912 36.2095 13.176 36.4015 13.48C36.5935 13.784 36.6895 14.16 36.6895 14.608C36.6895 15.424 36.3855 16.0667 35.7775 16.536C35.1748 17 34.3428 17.232 33.2815 17.232ZM38.6238 6.72V5.4H39.7998V6.72H38.6238ZM38.6238 17V8.36H39.7998V17H38.6238ZM43.0541 17V7.72C43.0541 7.496 43.0648 7.27467 43.0861 7.056C43.1128 6.83733 43.1635 6.62933 43.2381 6.432C43.3128 6.22933 43.4301 6.04267 43.5901 5.872C43.7661 5.68 43.9581 5.54133 44.1661 5.456C44.3741 5.36533 44.5901 5.30667 44.8141 5.28C45.0435 5.25333 45.2675 5.24 45.4861 5.24H46.5901V6.232H45.5661C45.1181 6.232 44.7821 6.34133 44.5581 6.56C44.3395 6.77867 44.2301 7.12267 44.2301 7.592V17H43.0541ZM41.5581 9.368V8.36H46.5901V9.368H41.5581ZM48.2701 6.72V5.4H49.4461V6.72H48.2701ZM48.2701 17V8.36H49.4461V17H48.2701ZM55.4227 17.24C54.5534 17.24 53.8174 17.0453 53.2148 16.656C52.6121 16.2667 52.1534 15.7307 51.8388 15.048C51.5294 14.36 51.3694 13.5707 51.3588 12.68C51.3694 11.7733 51.5348 10.9787 51.8548 10.296C52.1748 9.608 52.6361 9.07467 53.2388 8.696C53.8414 8.312 54.5721 8.12 55.4308 8.12C56.3054 8.12 57.0654 8.33333 57.7108 8.76C58.3614 9.18667 58.8068 9.77067 59.0468 10.512L57.8948 10.88C57.6921 10.3627 57.3694 9.96267 56.9268 9.68C56.4894 9.392 55.9881 9.248 55.4227 9.248C54.7881 9.248 54.2628 9.39467 53.8468 9.688C53.4308 9.976 53.1214 10.3787 52.9188 10.896C52.7161 11.4133 52.6121 12.008 52.6068 12.68C52.6174 13.7147 52.8574 14.5467 53.3268 15.176C53.7961 15.8 54.4948 16.112 55.4227 16.112C56.0094 16.112 56.5081 15.9787 56.9188 15.712C57.3348 15.44 57.6494 15.0453 57.8628 14.528L59.0468 14.88C58.7268 15.648 58.2574 16.2347 57.6388 16.64C57.0201 17.04 56.2814 17.24 55.4227 17.24ZM63.1233 17.24C62.4726 17.24 61.9259 17.1227 61.4833 16.888C61.0459 16.6533 60.7179 16.3413 60.4993 15.952C60.2806 15.5627 60.1713 15.1387 60.1713 14.68C60.1713 14.2107 60.2646 13.8107 60.4513 13.48C60.6433 13.144 60.9019 12.8693 61.2273 12.656C61.5579 12.4427 61.9393 12.28 62.3713 12.168C62.8086 12.0613 63.2913 11.968 63.8193 11.888C64.3526 11.8027 64.8726 11.7307 65.3793 11.672C65.8913 11.608 66.3393 11.5467 66.7233 11.488L66.3073 11.744C66.3233 10.8907 66.1579 10.2587 65.8113 9.848C65.4646 9.43733 64.8619 9.232 64.0033 9.232C63.4113 9.232 62.9099 9.36533 62.4993 9.632C62.0939 9.89867 61.8086 10.32 61.6432 10.896L60.4993 10.56C60.6966 9.78667 61.0939 9.18667 61.6913 8.76C62.2886 8.33333 63.0646 8.12 64.0193 8.12C64.8086 8.12 65.4779 8.26933 66.0273 8.568C66.5819 8.86133 66.9739 9.288 67.2033 9.848C67.3099 10.0987 67.3793 10.3787 67.4113 10.688C67.4433 10.9973 67.4593 11.312 67.4593 11.632V17H66.4113V14.832L66.7153 14.96C66.4219 15.7013 65.9659 16.2667 65.3473 16.656C64.7286 17.0453 63.9873 17.24 63.1233 17.24ZM63.2593 16.224C63.8086 16.224 64.2886 16.1253 64.6993 15.928C65.1099 15.7307 65.4406 15.4613 65.6913 15.12C65.9419 14.7733 66.1046 14.384 66.1793 13.952C66.2433 13.6747 66.2779 13.3707 66.2833 13.04C66.2886 12.704 66.2913 12.4533 66.2913 12.288L66.7393 12.52C66.3393 12.5733 65.9046 12.6267 65.4353 12.68C64.9713 12.7333 64.5126 12.7947 64.0593 12.864C63.6113 12.9333 63.2059 13.016 62.8433 13.112C62.5979 13.1813 62.3606 13.28 62.1313 13.408C61.9019 13.5307 61.7126 13.696 61.5633 13.904C61.4193 14.112 61.3473 14.3707 61.3473 14.68C61.3473 14.9307 61.4086 15.1733 61.5312 15.408C61.6593 15.6427 61.8619 15.8373 62.1393 15.992C62.4219 16.1467 62.7953 16.224 63.2593 16.224ZM72.8939 17.24C72.0885 17.24 71.4005 17.04 70.8299 16.64C70.2592 16.2347 69.8219 15.688 69.5179 15C69.2139 14.312 69.0619 13.536 69.0619 12.672C69.0619 11.8133 69.2112 11.04 69.5099 10.352C69.8139 9.664 70.2485 9.12 70.8139 8.72C71.3792 8.32 72.0565 8.12 72.8459 8.12C73.6565 8.12 74.3392 8.31733 74.8939 8.712C75.4485 9.10667 75.8672 9.648 76.1499 10.336C76.4379 11.0187 76.5819 11.7973 76.5819 12.672C76.5819 13.5307 76.4405 14.3067 76.1579 15C75.8752 15.688 75.4592 16.2347 74.9099 16.64C74.3605 17.04 73.6885 17.24 72.8939 17.24ZM73.0139 16.144C73.6272 16.144 74.1339 15.9947 74.5339 15.696C74.9339 15.3973 75.2325 14.9867 75.4299 14.464C75.6272 13.936 75.7259 13.3387 75.7259 12.672C75.7259 11.9947 75.6272 11.3973 75.4299 10.88C75.2325 10.3573 74.9339 9.94933 74.5339 9.656C74.1392 9.36267 73.6405 9.216 73.0379 9.216C72.4192 9.216 71.9072 9.368 71.5019 9.672C71.0965 9.976 70.7952 10.3893 70.5979 10.912C70.4059 11.4347 70.3099 12.0213 70.3099 12.672C70.3099 13.328 70.4085 13.92 70.6059 14.448C70.8085 14.9707 71.1099 15.384 71.5099 15.688C71.9099 15.992 72.4112 16.144 73.0139 16.144ZM75.7259 17V10.496H75.5979V5.48H76.7819V17H75.7259ZM82.6343 17.24C81.7756 17.24 81.0423 17.0453 80.4343 16.656C79.8263 16.2667 79.3596 15.728 79.0343 15.04C78.7089 14.352 78.5463 13.5627 78.5463 12.672C78.5463 11.7653 78.7116 10.9707 79.0423 10.288C79.3729 9.60533 79.8423 9.07467 80.4503 8.696C81.0636 8.312 81.7916 8.12 82.6343 8.12C83.4983 8.12 84.2343 8.31467 84.8423 8.704C85.4556 9.088 85.9223 9.624 86.2423 10.312C86.5676 10.9947 86.7303 11.7813 86.7303 12.672C86.7303 13.5787 86.5676 14.376 86.2423 15.064C85.9169 15.7467 85.4476 16.28 84.8343 16.664C84.2209 17.048 83.4876 17.24 82.6343 17.24ZM82.6343 16.112C83.5943 16.112 84.3089 15.7947 84.7783 15.16C85.2476 14.52 85.4823 13.6907 85.4823 12.672C85.4823 11.6267 85.2449 10.7947 84.7703 10.176C84.3009 9.55733 83.5889 9.248 82.6343 9.248C81.9889 9.248 81.4556 9.39467 81.0343 9.688C80.6183 9.976 80.3063 10.3787 80.0983 10.896C79.8956 11.408 79.7943 12 79.7943 12.672C79.7943 13.712 80.0343 14.5467 80.5143 15.176C80.9943 15.8 81.7009 16.112 82.6343 16.112ZM88.495 17V8.36H89.551V10.44L89.343 10.168C89.439 9.912 89.5643 9.67733 89.719 9.464C89.8737 9.24533 90.0417 9.06667 90.223 8.928C90.447 8.73067 90.7083 8.58133 91.007 8.48C91.3057 8.37333 91.607 8.312 91.911 8.296C92.215 8.27467 92.4923 8.296 92.743 8.36V9.464C92.4283 9.384 92.0843 9.36533 91.711 9.408C91.3377 9.45067 90.9937 9.6 90.679 9.856C90.391 10.08 90.175 10.3493 90.031 10.664C89.887 10.9733 89.791 11.304 89.743 11.656C89.695 12.0027 89.671 12.3467 89.671 12.688V17H88.495Z" fill="white"/>
<path d="M84.338 26.6816L76.0895 27.4033L74.3803 34.0275L71.4814 34.2811L77.2302 12.2161L80.7567 11.9075L90.1302 32.6495L87.1117 32.9136L84.338 26.6816ZM83.3596 24.4484L79.2224 15.0231L76.5756 25.0419L83.3596 24.4484ZM94.3929 10.7145L96.265 32.1128L93.4856 32.356L91.6135 10.9577L94.3929 10.7145Z" fill="#721FC5"/>
</svg>
